<mxfile host="app.diagrams.net" agent="Mozilla/5.0 (X11; Linux x86_64) AppleWebKit/537.36 (KHTML, like Gecko) Chrome/128.0.0.0 Safari/537.36" version="24.7.16">
  <diagram name="第 1 页" id="yZMblZLBDX4pvqzzv42t">
    <mxGraphModel dx="2010" dy="1112" grid="0" gridSize="10" guides="1" tooltips="1" connect="1" arrows="1" fold="1" page="1" pageScale="1" pageWidth="827" pageHeight="1169" math="0" shadow="0">
      <root>
        <mxCell id="0" />
        <mxCell id="1" parent="0" />
        <mxCell id="4glY3PIqCRat7q1SjAdd-7" style="edgeStyle=orthogonalEdgeStyle;rounded=0;orthogonalLoop=1;jettySize=auto;html=1;entryX=0;entryY=0.5;entryDx=0;entryDy=0;" edge="1" parent="1" source="4glY3PIqCRat7q1SjAdd-2" target="4glY3PIqCRat7q1SjAdd-5">
          <mxGeometry relative="1" as="geometry">
            <Array as="points">
              <mxPoint x="265" y="384" />
              <mxPoint x="265" y="275" />
            </Array>
          </mxGeometry>
        </mxCell>
        <mxCell id="4glY3PIqCRat7q1SjAdd-8" value="否" style="edgeLabel;html=1;align=center;verticalAlign=middle;resizable=0;points=[];" vertex="1" connectable="0" parent="4glY3PIqCRat7q1SjAdd-7">
          <mxGeometry x="-0.2408" y="2" relative="1" as="geometry">
            <mxPoint as="offset" />
          </mxGeometry>
        </mxCell>
        <mxCell id="4glY3PIqCRat7q1SjAdd-10" style="edgeStyle=orthogonalEdgeStyle;rounded=0;orthogonalLoop=1;jettySize=auto;html=1;" edge="1" parent="1" source="4glY3PIqCRat7q1SjAdd-2" target="4glY3PIqCRat7q1SjAdd-9">
          <mxGeometry relative="1" as="geometry" />
        </mxCell>
        <mxCell id="4glY3PIqCRat7q1SjAdd-2" value="达到&amp;nbsp;&lt;div&gt;ssthresh？&lt;/div&gt;" style="rhombus;whiteSpace=wrap;html=1;" vertex="1" parent="1">
          <mxGeometry x="285.5" y="358" width="119" height="51" as="geometry" />
        </mxCell>
        <mxCell id="4glY3PIqCRat7q1SjAdd-6" style="edgeStyle=orthogonalEdgeStyle;rounded=0;orthogonalLoop=1;jettySize=auto;html=1;" edge="1" parent="1" source="4glY3PIqCRat7q1SjAdd-5" target="4glY3PIqCRat7q1SjAdd-2">
          <mxGeometry relative="1" as="geometry" />
        </mxCell>
        <mxCell id="4glY3PIqCRat7q1SjAdd-5" value="慢启动&lt;div&gt;CWND指数增加&lt;/div&gt;" style="ellipse;whiteSpace=wrap;html=1;fillColor=#d5e8d4;strokeColor=#82b366;" vertex="1" parent="1">
          <mxGeometry x="285.5" y="246" width="120" height="57" as="geometry" />
        </mxCell>
        <mxCell id="4glY3PIqCRat7q1SjAdd-12" value="" style="edgeStyle=orthogonalEdgeStyle;rounded=0;orthogonalLoop=1;jettySize=auto;html=1;" edge="1" parent="1" source="4glY3PIqCRat7q1SjAdd-9" target="4glY3PIqCRat7q1SjAdd-11">
          <mxGeometry relative="1" as="geometry" />
        </mxCell>
        <mxCell id="4glY3PIqCRat7q1SjAdd-9" value="拥塞控制&lt;div&gt;CWND线性增加&lt;/div&gt;" style="ellipse;whiteSpace=wrap;html=1;fillColor=#fff2cc;strokeColor=#d6b656;" vertex="1" parent="1">
          <mxGeometry x="285.5" y="459" width="120" height="57" as="geometry" />
        </mxCell>
        <mxCell id="4glY3PIqCRat7q1SjAdd-16" style="edgeStyle=orthogonalEdgeStyle;rounded=0;orthogonalLoop=1;jettySize=auto;html=1;entryX=0.5;entryY=1;entryDx=0;entryDy=0;" edge="1" parent="1" source="4glY3PIqCRat7q1SjAdd-11" target="4glY3PIqCRat7q1SjAdd-15">
          <mxGeometry relative="1" as="geometry" />
        </mxCell>
        <mxCell id="4glY3PIqCRat7q1SjAdd-17" value="超时" style="edgeLabel;html=1;align=center;verticalAlign=middle;resizable=0;points=[];" vertex="1" connectable="0" parent="4glY3PIqCRat7q1SjAdd-16">
          <mxGeometry x="-0.3181" relative="1" as="geometry">
            <mxPoint x="-16" as="offset" />
          </mxGeometry>
        </mxCell>
        <mxCell id="4glY3PIqCRat7q1SjAdd-20" style="edgeStyle=orthogonalEdgeStyle;rounded=0;orthogonalLoop=1;jettySize=auto;html=1;entryX=0.5;entryY=1;entryDx=0;entryDy=0;" edge="1" parent="1" source="4glY3PIqCRat7q1SjAdd-11" target="4glY3PIqCRat7q1SjAdd-19">
          <mxGeometry relative="1" as="geometry" />
        </mxCell>
        <mxCell id="4glY3PIqCRat7q1SjAdd-21" value="快重传" style="edgeLabel;html=1;align=center;verticalAlign=middle;resizable=0;points=[];" vertex="1" connectable="0" parent="4glY3PIqCRat7q1SjAdd-20">
          <mxGeometry x="-0.371" y="-2" relative="1" as="geometry">
            <mxPoint as="offset" />
          </mxGeometry>
        </mxCell>
        <mxCell id="4glY3PIqCRat7q1SjAdd-11" value="拥塞" style="rhombus;whiteSpace=wrap;html=1;" vertex="1" parent="1">
          <mxGeometry x="279" y="579" width="134.5" height="42.5" as="geometry" />
        </mxCell>
        <mxCell id="4glY3PIqCRat7q1SjAdd-18" style="edgeStyle=orthogonalEdgeStyle;rounded=0;orthogonalLoop=1;jettySize=auto;html=1;entryX=1;entryY=0.5;entryDx=0;entryDy=0;exitX=0.5;exitY=0;exitDx=0;exitDy=0;" edge="1" parent="1" source="4glY3PIqCRat7q1SjAdd-15" target="4glY3PIqCRat7q1SjAdd-5">
          <mxGeometry relative="1" as="geometry" />
        </mxCell>
        <mxCell id="4glY3PIqCRat7q1SjAdd-15" value="&lt;div&gt;超时重传&lt;/div&gt;CWND=1&lt;div&gt;ssthresh/2&lt;/div&gt;" style="ellipse;whiteSpace=wrap;html=1;fillColor=#f8cecc;strokeColor=#b85450;" vertex="1" parent="1">
          <mxGeometry x="444" y="451" width="120" height="57" as="geometry" />
        </mxCell>
        <mxCell id="4glY3PIqCRat7q1SjAdd-22" style="edgeStyle=orthogonalEdgeStyle;rounded=0;orthogonalLoop=1;jettySize=auto;html=1;entryX=0;entryY=1;entryDx=0;entryDy=0;exitX=0.5;exitY=0;exitDx=0;exitDy=0;" edge="1" parent="1" source="4glY3PIqCRat7q1SjAdd-19" target="4glY3PIqCRat7q1SjAdd-2">
          <mxGeometry relative="1" as="geometry" />
        </mxCell>
        <mxCell id="4glY3PIqCRat7q1SjAdd-19" value="&lt;div&gt;快重传&lt;/div&gt;CWND/2+3&lt;div&gt;ssthresh/2&lt;/div&gt;" style="ellipse;whiteSpace=wrap;html=1;fillColor=#ffe6cc;strokeColor=#d79b00;" vertex="1" parent="1">
          <mxGeometry x="109" y="459" width="120" height="57" as="geometry" />
        </mxCell>
      </root>
    </mxGraphModel>
  </diagram>
</mxfile>
